<svg width="1880" height="120" viewBox="0 0 1880 120" fill="none" xmlns="http://www.w3.org/2000/svg">
<rect width="1880" height="120" rx="20" fill="#D6EB31"/>
<path d="M1387.45 42.304V76H1379.24V55.792L1371.7 76H1365.08L1357.5 55.744V76H1349.29V42.304H1358.98L1368.44 65.632L1377.8 42.304H1387.45ZM1405.54 76.384C1402.92 76.384 1400.55 75.824 1398.44 74.704C1396.36 73.584 1394.71 71.984 1393.5 69.904C1392.31 67.824 1391.72 65.392 1391.72 62.608C1391.72 59.856 1392.33 57.44 1393.54 55.36C1394.76 53.248 1396.42 51.632 1398.54 50.512C1400.65 49.392 1403.02 48.832 1405.64 48.832C1408.26 48.832 1410.63 49.392 1412.74 50.512C1414.86 51.632 1416.52 53.248 1417.74 55.36C1418.95 57.44 1419.56 59.856 1419.56 62.608C1419.56 65.36 1418.94 67.792 1417.69 69.904C1416.47 71.984 1414.79 73.584 1412.65 74.704C1410.54 75.824 1408.17 76.384 1405.54 76.384ZM1405.54 69.28C1407.11 69.28 1408.44 68.704 1409.53 67.552C1410.65 66.4 1411.21 64.752 1411.21 62.608C1411.21 60.464 1410.66 58.816 1409.58 57.664C1408.52 56.512 1407.21 55.936 1405.64 55.936C1404.04 55.936 1402.71 56.512 1401.66 57.664C1400.6 58.784 1400.07 60.432 1400.07 62.608C1400.07 64.752 1400.58 66.4 1401.61 67.552C1402.66 68.704 1403.98 69.28 1405.54 69.28ZM1422.28 62.56C1422.28 59.808 1422.79 57.392 1423.82 55.312C1424.87 53.232 1426.3 51.632 1428.09 50.512C1429.88 49.392 1431.88 48.832 1434.09 48.832C1435.85 48.832 1437.45 49.2 1438.89 49.936C1440.36 50.672 1441.51 51.664 1442.35 52.912V40.48H1450.55V76H1442.35V72.16C1441.58 73.44 1440.47 74.464 1439.03 75.232C1437.63 76 1435.98 76.384 1434.09 76.384C1431.88 76.384 1429.88 75.824 1428.09 74.704C1426.3 73.552 1424.87 71.936 1423.82 69.856C1422.79 67.744 1422.28 65.312 1422.28 62.56ZM1442.35 62.608C1442.35 60.56 1441.77 58.944 1440.62 57.76C1439.5 56.576 1438.12 55.984 1436.49 55.984C1434.86 55.984 1433.47 56.576 1432.31 57.76C1431.19 58.912 1430.63 60.512 1430.63 62.56C1430.63 64.608 1431.19 66.24 1432.31 67.456C1433.47 68.64 1434.86 69.232 1436.49 69.232C1438.12 69.232 1439.5 68.64 1440.62 67.456C1441.77 66.272 1442.35 64.656 1442.35 62.608ZM1481.74 62.176C1481.74 62.944 1481.69 63.744 1481.6 64.576H1463.02C1463.15 66.24 1463.68 67.52 1464.6 68.416C1465.56 69.28 1466.73 69.712 1468.11 69.712C1470.16 69.712 1471.58 68.848 1472.38 67.12H1481.12C1480.67 68.88 1479.85 70.464 1478.67 71.872C1477.52 73.28 1476.06 74.384 1474.3 75.184C1472.54 75.984 1470.57 76.384 1468.4 76.384C1465.77 76.384 1463.44 75.824 1461.39 74.704C1459.34 73.584 1457.74 71.984 1456.59 69.904C1455.44 67.824 1454.86 65.392 1454.86 62.608C1454.86 59.824 1455.42 57.392 1456.54 55.312C1457.69 53.232 1459.29 51.632 1461.34 50.512C1463.39 49.392 1465.74 48.832 1468.4 48.832C1470.99 48.832 1473.29 49.376 1475.31 50.464C1477.32 51.552 1478.89 53.104 1480.01 55.12C1481.16 57.136 1481.74 59.488 1481.74 62.176ZM1473.34 60.016C1473.34 58.608 1472.86 57.488 1471.9 56.656C1470.94 55.824 1469.74 55.408 1468.3 55.408C1466.92 55.408 1465.76 55.808 1464.8 56.608C1463.87 57.408 1463.29 58.544 1463.07 60.016H1473.34ZM1494.28 53.68C1495.24 52.208 1496.44 51.056 1497.88 50.224C1499.32 49.36 1500.92 48.928 1502.68 48.928V57.616H1500.42C1498.37 57.616 1496.84 58.064 1495.81 58.96C1494.79 59.824 1494.28 61.36 1494.28 63.568V76H1486.07V49.216H1494.28V53.68ZM1522.92 48.928C1526.06 48.928 1528.55 49.952 1530.41 52C1532.3 54.016 1533.24 56.8 1533.24 60.352V76H1525.08V61.456C1525.08 59.664 1524.62 58.272 1523.69 57.28C1522.76 56.288 1521.51 55.792 1519.95 55.792C1518.38 55.792 1517.13 56.288 1516.2 57.28C1515.27 58.272 1514.81 59.664 1514.81 61.456V76H1506.6V49.216H1514.81V52.768C1515.64 51.584 1516.76 50.656 1518.17 49.984C1519.58 49.28 1521.16 48.928 1522.92 48.928ZM1557.32 48.88V55.696H1568.32V62.032H1557.32V69.424H1569.76V76H1549.12V42.304H1569.76V48.88H1557.32ZM1573.45 62.656C1573.45 60 1574 57.632 1575.09 55.552C1576.21 53.472 1577.69 51.856 1579.55 50.704C1581.44 49.52 1583.49 48.928 1585.69 48.928C1587.39 48.928 1588.91 49.232 1590.25 49.84C1591.6 50.416 1592.69 51.232 1593.52 52.288V49.216H1601.73V88.768H1593.52V72.64C1592.59 73.76 1591.45 74.656 1590.11 75.328C1588.8 76 1587.29 76.336 1585.6 76.336C1583.42 76.336 1581.41 75.76 1579.55 74.608C1577.69 73.456 1576.21 71.84 1575.09 69.76C1574 67.68 1573.45 65.312 1573.45 62.656ZM1593.52 62.608C1593.52 61.168 1593.23 59.968 1592.65 59.008C1592.11 58.016 1591.39 57.28 1590.49 56.8C1589.6 56.288 1588.65 56.032 1587.66 56.032C1586.7 56.032 1585.77 56.288 1584.88 56.8C1583.98 57.28 1583.25 58.016 1582.67 59.008C1582.09 60 1581.81 61.216 1581.81 62.656C1581.81 64.096 1582.09 65.312 1582.67 66.304C1583.25 67.264 1583.98 68 1584.88 68.512C1585.77 68.992 1586.7 69.232 1587.66 69.232C1588.62 69.232 1589.55 68.992 1590.45 68.512C1591.37 68 1592.11 67.248 1592.65 66.256C1593.23 65.264 1593.52 64.048 1593.52 62.608ZM1634.11 49.216V76H1625.9V72.352C1625.07 73.536 1623.94 74.496 1622.5 75.232C1621.09 75.936 1619.52 76.288 1617.79 76.288C1615.74 76.288 1613.94 75.84 1612.37 74.944C1610.8 74.016 1609.58 72.688 1608.72 70.96C1607.86 69.232 1607.42 67.2 1607.42 64.864V49.216H1615.58V63.76C1615.58 65.552 1616.05 66.944 1616.98 67.936C1617.9 68.928 1619.15 69.424 1620.72 69.424C1622.32 69.424 1623.58 68.928 1624.51 67.936C1625.44 66.944 1625.9 65.552 1625.9 63.76V49.216H1634.11ZM1644.14 46.432C1642.7 46.432 1641.51 46.016 1640.58 45.184C1639.69 44.32 1639.24 43.264 1639.24 42.016C1639.24 40.736 1639.69 39.68 1640.58 38.848C1641.51 37.984 1642.7 37.552 1644.14 37.552C1645.54 37.552 1646.7 37.984 1647.59 38.848C1648.52 39.68 1648.98 40.736 1648.98 42.016C1648.98 43.264 1648.52 44.32 1647.59 45.184C1646.7 46.016 1645.54 46.432 1644.14 46.432ZM1648.22 49.216V76H1640.01V49.216H1648.22ZM1662.37 53.008C1663.17 51.76 1664.28 50.752 1665.68 49.984C1667.09 49.216 1668.74 48.832 1670.63 48.832C1672.84 48.832 1674.84 49.392 1676.63 50.512C1678.42 51.632 1679.83 53.232 1680.85 55.312C1681.91 57.392 1682.44 59.808 1682.44 62.56C1682.44 65.312 1681.91 67.744 1680.85 69.856C1679.83 71.936 1678.42 73.552 1676.63 74.704C1674.84 75.824 1672.84 76.384 1670.63 76.384C1668.77 76.384 1667.12 76 1665.68 75.232C1664.28 74.464 1663.17 73.472 1662.37 72.256V88.768H1654.16V49.216H1662.37V53.008ZM1674.08 62.56C1674.08 60.512 1673.51 58.912 1672.36 57.76C1671.24 56.576 1669.84 55.984 1668.18 55.984C1666.55 55.984 1665.16 56.576 1664 57.76C1662.88 58.944 1662.32 60.56 1662.32 62.608C1662.32 64.656 1662.88 66.272 1664 67.456C1665.16 68.64 1666.55 69.232 1668.18 69.232C1669.81 69.232 1671.2 68.64 1672.36 67.456C1673.51 66.24 1674.08 64.608 1674.08 62.56ZM1720.92 48.928C1724.25 48.928 1726.89 49.936 1728.84 51.952C1730.82 53.968 1731.81 56.768 1731.81 60.352V76H1723.65V61.456C1723.65 59.728 1723.19 58.4 1722.26 57.472C1721.37 56.512 1720.12 56.032 1718.52 56.032C1716.92 56.032 1715.65 56.512 1714.73 57.472C1713.83 58.4 1713.38 59.728 1713.38 61.456V76H1705.22V61.456C1705.22 59.728 1704.76 58.4 1703.83 57.472C1702.93 56.512 1701.69 56.032 1700.09 56.032C1698.49 56.032 1697.22 56.512 1696.29 57.472C1695.4 58.4 1694.95 59.728 1694.95 61.456V76H1686.74V49.216H1694.95V52.576C1695.78 51.456 1696.87 50.576 1698.21 49.936C1699.56 49.264 1701.08 48.928 1702.77 48.928C1704.79 48.928 1706.58 49.36 1708.15 50.224C1709.75 51.088 1711 52.32 1711.89 53.92C1712.82 52.448 1714.09 51.248 1715.69 50.32C1717.29 49.392 1719.03 48.928 1720.92 48.928ZM1762.8 62.176C1762.8 62.944 1762.75 63.744 1762.66 64.576H1744.08C1744.21 66.24 1744.74 67.52 1745.67 68.416C1746.63 69.28 1747.79 69.712 1749.17 69.712C1751.22 69.712 1752.64 68.848 1753.44 67.12H1762.18C1761.73 68.88 1760.91 70.464 1759.73 71.872C1758.58 73.28 1757.12 74.384 1755.36 75.184C1753.6 75.984 1751.63 76.384 1749.46 76.384C1746.83 76.384 1744.5 75.824 1742.45 74.704C1740.4 73.584 1738.8 71.984 1737.65 69.904C1736.5 67.824 1735.92 65.392 1735.92 62.608C1735.92 59.824 1736.48 57.392 1737.6 55.312C1738.75 53.232 1740.35 51.632 1742.4 50.512C1744.45 49.392 1746.8 48.832 1749.46 48.832C1752.05 48.832 1754.35 49.376 1756.37 50.464C1758.39 51.552 1759.95 53.104 1761.07 55.12C1762.23 57.136 1762.8 59.488 1762.8 62.176ZM1754.4 60.016C1754.4 58.608 1753.92 57.488 1752.96 56.656C1752 55.824 1750.8 55.408 1749.36 55.408C1747.99 55.408 1746.82 55.808 1745.86 56.608C1744.93 57.408 1744.35 58.544 1744.13 60.016H1754.4ZM1783.45 48.928C1786.59 48.928 1789.08 49.952 1790.94 52C1792.83 54.016 1793.77 56.8 1793.77 60.352V76H1785.61V61.456C1785.61 59.664 1785.15 58.272 1784.22 57.28C1783.29 56.288 1782.04 55.792 1780.48 55.792C1778.91 55.792 1777.66 56.288 1776.73 57.28C1775.8 58.272 1775.34 59.664 1775.34 61.456V76H1767.13V49.216H1775.34V52.768C1776.17 51.584 1777.29 50.656 1778.7 49.984C1780.11 49.28 1781.69 48.928 1783.45 48.928ZM1814.4 69.04V76H1810.23C1807.25 76 1804.93 75.28 1803.27 73.84C1801.6 72.368 1800.77 69.984 1800.77 66.688V56.032H1797.51V49.216H1800.77V42.688H1808.98V49.216H1814.36V56.032H1808.98V66.784C1808.98 67.584 1809.17 68.16 1809.56 68.512C1809.94 68.864 1810.58 69.04 1811.48 69.04H1814.4Z" fill="#27252F"/>
<g clip-path="url(#clip0_2_213)">
<mask id="mask0_2_213" style="mask-type:luminance" maskUnits="userSpaceOnUse" x="961" y="40" width="172" height="40">
<path d="M1133 40H961V80H1133V40Z" fill="white"/>
</mask>
<g mask="url(#mask0_2_213)">
<path d="M1010.04 68.9992H1021.39V65.7665H1013.5V50.6719H1010.04V68.9992Z" fill="#080517"/>
<path d="M1028.21 69.3821C1029.59 69.3821 1030.8 69.0766 1031.84 68.4657C1032.89 67.8463 1033.71 66.9936 1034.3 65.9076C1034.89 64.813 1035.19 63.553 1035.19 62.1276C1035.19 60.7106 1034.89 59.4591 1034.31 58.373C1033.72 57.2785 1032.9 56.4215 1031.85 55.8021C1030.81 55.1827 1029.59 54.873 1028.21 54.873C1026.85 54.873 1025.65 55.1785 1024.61 55.7894C1023.57 56.4003 1022.75 57.253 1022.15 58.3476C1021.56 59.4336 1021.26 60.6936 1021.26 62.1276C1021.26 63.5445 1021.55 64.8003 1022.13 65.8948C1022.71 66.9809 1023.53 67.8336 1024.57 68.453C1025.62 69.0724 1026.83 69.3821 1028.21 69.3821ZM1028.21 66.1494C1027.13 66.1494 1026.32 65.7888 1025.76 65.0676C1025.2 64.3379 1024.93 63.3579 1024.93 62.1276C1024.93 60.9312 1025.19 59.9639 1025.72 59.2257C1026.25 58.4791 1027.08 58.1057 1028.21 58.1057C1029.31 58.1057 1030.13 58.4706 1030.68 59.2003C1031.24 59.93 1031.52 60.9057 1031.52 62.1276C1031.52 63.307 1031.24 64.2742 1030.69 65.0294C1030.15 65.776 1029.32 66.1494 1028.21 66.1494Z" fill="#080517"/>
<path d="M1042.03 69.3821C1042.68 69.3821 1043.27 69.3057 1043.81 69.153C1044.37 69.0003 1044.87 68.7839 1045.32 68.5039V69.8912C1045.33 70.4003 1045.2 70.8245 1044.92 71.1639C1044.65 71.5118 1044.28 71.7706 1043.83 71.9403C1043.37 72.1185 1042.88 72.2076 1042.36 72.2076C1041.88 72.2076 1041.43 72.1015 1041.01 71.8894C1040.61 71.6773 1040.29 71.3676 1040.07 70.9603L1036.86 72.513C1037.39 73.4039 1038.14 74.1209 1039.12 74.6639C1040.09 75.2154 1041.17 75.4912 1042.34 75.4912C1043.35 75.4912 1044.28 75.3554 1045.15 75.0839C1046.02 74.8209 1046.75 74.4179 1047.34 73.8748C1047.94 73.3318 1048.35 72.6403 1048.57 71.8003C1048.65 71.5033 1048.7 71.2021 1048.73 70.8966C1048.76 70.5997 1048.78 70.2815 1048.78 69.9421V55.2548H1045.75V56.0185C1045.28 55.6536 1044.75 55.3736 1044.16 55.1785C1043.57 54.9748 1042.92 54.873 1042.21 54.873C1040.9 54.873 1039.75 55.187 1038.77 55.8148C1037.8 56.4427 1037.04 57.3039 1036.5 58.3985C1035.96 59.4845 1035.69 60.7276 1035.69 62.1276C1035.69 63.5021 1035.96 64.7366 1036.48 65.8312C1037.02 66.9257 1037.76 67.7912 1038.71 68.4276C1039.66 69.0639 1040.77 69.3821 1042.03 69.3821ZM1042.59 66.3021C1041.85 66.3021 1041.23 66.1154 1040.76 65.7421C1040.28 65.3688 1039.93 64.8682 1039.7 64.2403C1039.47 63.6039 1039.36 62.8997 1039.36 62.1276C1039.36 61.3639 1039.48 60.6682 1039.72 60.0403C1039.95 59.4039 1040.32 58.8991 1040.81 58.5257C1041.31 58.1439 1041.95 57.953 1042.72 57.953C1043.81 57.953 1044.58 58.3391 1045.05 59.1112C1045.52 59.8748 1045.75 60.8803 1045.75 62.1276C1045.75 63.3748 1045.51 64.3845 1045.04 65.1566C1044.57 65.9203 1043.75 66.3021 1042.59 66.3021Z" fill="#080517"/>
<path d="M1057 69.3821C1058.37 69.3821 1059.58 69.0766 1060.63 68.4657C1061.68 67.8463 1062.5 66.9936 1063.08 65.9076C1063.68 64.813 1063.97 63.553 1063.97 62.1276C1063.97 60.7106 1063.68 59.4591 1063.1 58.373C1062.51 57.2785 1061.69 56.4215 1060.64 55.8021C1059.6 55.1827 1058.38 54.873 1057 54.873C1055.64 54.873 1054.44 55.1785 1053.4 55.7894C1052.35 56.4003 1051.54 57.253 1050.94 58.3476C1050.35 59.4336 1050.05 60.6936 1050.05 62.1276C1050.05 63.5445 1050.34 64.8003 1050.92 65.8948C1051.5 66.9809 1052.32 67.8336 1053.36 68.453C1054.4 69.0724 1055.62 69.3821 1057 69.3821ZM1057 66.1494C1055.92 66.1494 1055.1 65.7888 1054.54 65.0676C1053.99 64.3379 1053.72 63.3579 1053.72 62.1276C1053.72 60.9312 1053.98 59.9639 1054.51 59.2257C1055.04 58.4791 1055.87 58.1057 1057 58.1057C1058.09 58.1057 1058.92 58.4706 1059.47 59.2003C1060.03 59.93 1060.31 60.9057 1060.31 62.1276C1060.31 63.307 1060.03 64.2742 1059.48 65.0294C1058.94 65.776 1058.11 66.1494 1057 66.1494Z" fill="#080517"/>
<path d="M1065.5 53.3455H1068.96V50.291H1065.5V53.3455ZM1065.5 69.0001H1068.96V55.2546H1065.5V69.0001Z" fill="#080517"/>
<path d="M1071.22 75.1094H1074.71V68.5039C1075.16 68.7839 1075.66 69.0003 1076.2 69.153C1076.75 69.3057 1077.35 69.3821 1078 69.3821C1079.26 69.3821 1080.37 69.0639 1081.32 68.4276C1082.27 67.7912 1083.01 66.9257 1083.53 65.8312C1084.07 64.7366 1084.33 63.5021 1084.33 62.1276C1084.33 60.7276 1084.06 59.4845 1083.52 58.3985C1082.98 57.3039 1082.23 56.4427 1081.25 55.8148C1080.28 55.187 1079.13 54.873 1077.82 54.873C1077.1 54.873 1076.45 54.9748 1075.86 55.1785C1075.27 55.3736 1074.75 55.6536 1074.28 56.0185V55.2548H1071.22V75.1094ZM1077.44 66.3021C1076.28 66.3021 1075.47 65.9203 1074.99 65.1566C1074.52 64.3845 1074.28 63.3748 1074.28 62.1276C1074.28 60.8803 1074.51 59.8748 1074.98 59.1112C1075.45 58.3391 1076.23 57.953 1077.31 57.953C1078.08 57.953 1078.71 58.1439 1079.2 58.5257C1079.71 58.8991 1080.07 59.4039 1080.31 60.0403C1080.55 60.6682 1080.67 61.3639 1080.67 62.1276C1080.67 62.8997 1080.55 63.6039 1080.32 64.2403C1080.1 64.8682 1079.74 65.3688 1079.27 65.7421C1078.79 66.1154 1078.18 66.3021 1077.44 66.3021Z" fill="#080517"/>
<path d="M1090.61 69.3821C1092.4 69.3821 1093.81 68.9791 1094.83 68.173C1095.85 67.3669 1096.36 66.2597 1096.36 64.8512C1096.36 63.7821 1096.03 62.9379 1095.37 62.3185C1094.71 61.6991 1093.6 61.1857 1092.03 60.7785C1090.96 60.5069 1090.16 60.2863 1089.64 60.1166C1089.12 59.947 1088.78 59.7815 1088.61 59.6203C1088.45 59.4591 1088.37 59.2597 1088.37 59.0221C1088.37 58.6233 1088.56 58.3179 1088.94 58.1057C1089.33 57.8936 1089.84 57.8088 1090.48 57.8512C1091.83 57.953 1092.57 58.53 1092.69 59.5821L1096.23 58.9457C1096.05 57.6985 1095.44 56.71 1094.4 55.9803C1093.35 55.2421 1092.02 54.873 1090.4 54.873C1088.74 54.873 1087.41 55.2633 1086.42 56.0439C1085.43 56.8245 1084.93 57.8766 1084.93 59.2003C1084.93 60.2524 1085.27 61.0839 1085.96 61.6948C1086.65 62.2973 1087.83 62.8148 1089.51 63.2476C1090.5 63.5106 1091.23 63.7227 1091.7 63.8839C1092.17 64.0451 1092.48 64.2106 1092.62 64.3803C1092.75 64.5415 1092.82 64.7579 1092.82 65.0294C1092.82 65.4621 1092.65 65.8015 1092.31 66.0476C1091.97 66.2851 1091.49 66.4039 1090.86 66.4039C1090.1 66.4039 1089.46 66.2215 1088.96 65.8566C1088.47 65.4918 1088.15 64.987 1088.01 64.3421L1084.47 64.8766C1084.7 66.3106 1085.34 67.4221 1086.41 68.2112C1087.47 68.9918 1088.87 69.3821 1090.61 69.3821Z" fill="#080517"/>
<path d="M1102.74 69.4067C1103.74 69.4067 1104.6 69.2412 1105.34 68.9103C1106.08 68.5794 1106.7 68.1382 1107.2 67.5867V68.9994H1110.25V55.2539H1106.77V62.2285C1106.77 63.077 1106.67 63.7642 1106.47 64.2903C1106.29 64.8079 1106.05 65.2024 1105.75 65.4739C1105.45 65.737 1105.13 65.9151 1104.79 66.0085C1104.45 66.1018 1104.14 66.1485 1103.84 66.1485C1103.1 66.1485 1102.53 65.983 1102.12 65.6521C1101.72 65.3212 1101.43 64.9097 1101.26 64.4176C1101.08 63.9254 1100.97 63.4376 1100.94 62.9539C1100.9 62.4618 1100.89 62.0588 1100.89 61.7448V55.2539H1097.37V62.9667C1097.37 63.1957 1097.39 63.5606 1097.42 64.0612C1097.46 64.5618 1097.56 65.1176 1097.72 65.7285C1097.88 66.3309 1098.15 66.9121 1098.52 67.4721C1098.9 68.0321 1099.43 68.4945 1100.11 68.8594C1100.79 69.2242 1101.67 69.4067 1102.74 69.4067Z" fill="#080517"/>
<path d="M1112.26 69.0002H1115.75V60.6765C1115.75 59.8875 1115.96 59.2469 1116.39 58.7547C1116.84 58.2541 1117.42 58.0038 1118.14 58.0038C1118.89 58.0038 1119.48 58.2584 1119.91 58.7675C1120.34 59.2681 1120.56 59.9723 1120.56 60.8802V69.0002H1124.02V60.6765C1124.02 59.8875 1124.23 59.2469 1124.67 58.7547C1125.11 58.2541 1125.69 58.0038 1126.41 58.0038C1127.17 58.0038 1127.76 58.2584 1128.18 58.7675C1128.61 59.2681 1128.83 59.9723 1128.83 60.8802V69.0002H1132.29V59.9638C1132.29 58.462 1131.89 57.2487 1131.08 56.3238C1130.28 55.3905 1129.1 54.9238 1127.53 54.9238C1126.65 54.9238 1125.84 55.1147 1125.1 55.4965C1124.36 55.8784 1123.77 56.4002 1123.33 57.062C1122.97 56.4172 1122.47 55.8996 1121.8 55.5093C1121.14 55.119 1120.32 54.9238 1119.33 54.9238C1118.5 54.9238 1117.74 55.0893 1117.04 55.4202C1116.35 55.7426 1115.77 56.1881 1115.31 56.7565V55.2547H1112.26V69.0002Z" fill="#080517"/>
<path d="M981 40C969.954 40 961 48.9543 961 60C972.046 60 981 51.0457 981 40Z" fill="#080517"/>
<path d="M981 80C992.046 80 1001 71.0457 1001 60C989.954 60 981 68.9543 981 80Z" fill="#080517"/>
<path d="M981 40C992.046 40 1001 48.9543 1001 60C989.954 60 981 51.0457 981 40Z" fill="#080517"/>
<path d="M981 80C969.954 80 961 71.0457 961 60C972.046 60 981 68.9543 981 80Z" fill="#080517"/>
</g>
</g>
<g clip-path="url(#clip1_2_213)">
<mask id="mask1_2_213" style="mask-type:luminance" maskUnits="userSpaceOnUse" x="745" y="40" width="166" height="40">
<path d="M911 40H745V80H911V40Z" fill="white"/>
</mask>
<g mask="url(#mask1_2_213)">
<path d="M795.071 68.6087H806.742V65.0965H799.219V51.8672H795.071V68.6087Z" fill="#080517"/>
<path d="M813.656 66.2657C811.992 66.2657 811.125 64.8139 811.125 62.6364C811.125 60.4588 811.992 58.9837 813.656 58.9837C815.32 58.9837 816.211 60.4588 816.211 62.6364C816.211 64.8139 815.32 66.2657 813.656 66.2657ZM813.68 68.9817C817.547 68.9817 820.078 66.2422 820.078 62.6364C820.078 59.0305 817.547 56.291 813.68 56.291C809.836 56.291 807.258 59.0305 807.258 62.6364C807.258 66.2422 809.836 68.9817 813.68 68.9817Z" fill="#080517"/>
<path d="M826.771 72.7515C828.552 72.7515 830.122 72.3534 831.177 71.4168C832.137 70.5505 832.77 69.2393 832.77 67.4364V56.6188H829.114V57.9066H829.067C828.364 56.8998 827.286 56.2676 825.693 56.2676C822.716 56.2676 820.654 58.7495 820.654 62.2617C820.654 65.9378 823.162 67.9515 825.857 67.9515C827.31 67.9515 828.224 67.3661 828.927 66.57H829.021V67.7642C829.021 69.2159 828.341 70.0588 826.724 70.0588C825.458 70.0588 824.826 69.5203 824.615 68.8881H820.912C821.287 71.3934 823.466 72.7515 826.771 72.7515ZM826.747 65.1183C825.318 65.1183 824.38 63.9476 824.38 62.1447C824.38 60.3183 825.318 59.1476 826.747 59.1476C828.341 59.1476 829.185 60.5056 829.185 62.1212C829.185 63.8071 828.411 65.1183 826.747 65.1183Z" fill="#080517"/>
<path d="M840.287 66.2657C838.624 66.2657 837.756 64.8139 837.756 62.6364C837.756 60.4588 838.624 58.9837 840.287 58.9837C841.951 58.9837 842.841 60.4588 842.841 62.6364C842.841 64.8139 841.951 66.2657 840.287 66.2657ZM840.311 68.9817C844.177 68.9817 846.708 66.2422 846.708 62.6364C846.708 59.0305 844.177 56.291 840.311 56.291C836.467 56.291 833.89 59.0305 833.89 62.6364C833.89 66.2422 836.467 68.9817 840.311 68.9817Z" fill="#080517"/>
<path d="M847.824 68.6087H851.644V56.6204H847.824V68.6087ZM847.824 54.9579H851.644V51.8672H847.824V54.9579Z" fill="#080517"/>
<path d="M853.301 72.5642H857.121V67.3661H857.168C857.918 68.3729 859.019 68.9817 860.566 68.9817C863.707 68.9817 865.792 66.4998 865.792 62.6129C865.792 59.0071 863.847 56.2676 860.66 56.2676C859.019 56.2676 857.848 56.9934 857.027 58.0705H856.957V56.6188H853.301V72.5642ZM859.582 66.0315C857.941 66.0315 857.004 64.6968 857.004 62.7534C857.004 60.81 857.848 59.3349 859.512 59.3349C861.152 59.3349 861.925 60.6929 861.925 62.7534C861.925 64.7905 861.035 66.0315 859.582 66.0315Z" fill="#080517"/>
<path d="M872.012 68.9817C875.152 68.9817 877.472 67.6237 877.472 65.0012C877.472 61.9339 874.988 61.3954 872.879 61.0442C871.355 60.7632 869.996 60.6461 869.996 59.8032C869.996 59.0539 870.723 58.7027 871.66 58.7027C872.715 58.7027 873.441 59.0305 873.582 60.1076H877.097C876.91 57.7427 875.082 56.2676 871.683 56.2676C868.848 56.2676 866.504 57.5788 866.504 60.1076C866.504 62.9173 868.731 63.4793 870.816 63.8305C872.41 64.1115 873.863 64.2286 873.863 65.3056C873.863 66.0783 873.136 66.4998 871.988 66.4998C870.723 66.4998 869.926 65.9144 869.785 64.7203H866.176C866.293 67.3661 868.496 68.9817 872.012 68.9817Z" fill="#080517"/>
<path d="M882.661 68.9606C884.325 68.9606 885.379 68.305 886.246 67.1343H886.317V68.6094H889.973V56.6211H886.153V63.3177C886.153 64.746 885.356 65.7294 884.043 65.7294C882.825 65.7294 882.239 65.0035 882.239 63.6923V56.6211H878.442V64.4884C878.442 67.1577 879.895 68.9606 882.661 68.9606Z" fill="#080517"/>
<path d="M891.635 68.6071H895.455V61.8871C895.455 60.4588 896.158 59.452 897.353 59.452C898.501 59.452 899.04 60.2012 899.04 61.489V68.6071H902.86V61.8871C902.86 60.4588 903.54 59.452 904.758 59.452C905.907 59.452 906.446 60.2012 906.446 61.489V68.6071H910.266V60.81C910.266 58.1173 908.906 56.2676 906.188 56.2676C904.641 56.2676 903.352 56.9232 902.415 58.3749H902.368C901.759 57.0871 900.563 56.2676 898.993 56.2676C897.259 56.2676 896.111 57.0871 895.361 58.3281H895.291V56.6188H891.635V68.6071Z" fill="#080517"/>
<path fill-rule="evenodd" clip-rule="evenodd" d="M764.628 79.3388C775.414 79.3388 784.158 70.6029 784.158 59.8266C784.158 49.0503 775.414 40.3145 764.628 40.3145C753.843 40.3145 745.099 49.0503 745.099 59.8266C745.099 70.6029 753.843 79.3388 764.628 79.3388ZM767.643 55.3901C769.307 53.7268 769.307 51.0301 767.643 49.3668C765.978 47.7035 763.279 47.7035 761.614 49.3668C759.949 51.0301 759.949 53.7268 761.614 55.3901L764.628 58.4017L767.643 55.3901ZM769.069 62.8383C770.734 64.5016 773.433 64.5016 775.097 62.8383C776.762 61.175 776.762 58.4783 775.097 56.815C773.433 55.1518 770.734 55.1518 769.069 56.815L766.055 59.8267L769.069 62.8383ZM767.643 70.2865C769.307 68.6232 769.307 65.9265 767.643 64.2632L764.628 61.2516L761.614 64.2632C759.949 65.9265 759.949 68.6232 761.614 70.2865C763.279 71.9498 765.978 71.9498 767.643 70.2865ZM754.159 62.8383C752.495 61.175 752.495 58.4783 754.159 56.815C755.824 55.1518 758.523 55.1518 760.188 56.815L763.202 59.8267L760.188 62.8383C758.523 64.5016 755.824 64.5016 754.159 62.8383Z" fill="#080517"/>
</g>
</g>
<g clip-path="url(#clip2_2_213)">
<mask id="mask2_2_213" style="mask-type:luminance" maskUnits="userSpaceOnUse" x="493" y="40" width="202" height="40">
<path d="M695 40H493V80H695V40Z" fill="white"/>
</mask>
<g mask="url(#mask2_2_213)">
<path fill-rule="evenodd" clip-rule="evenodd" d="M518.556 51.6853C516.911 50.5865 514.978 50 513 50V40C516.956 40 520.822 41.173 524.111 43.3706C527.4 45.5682 529.964 48.6918 531.478 52.3463C532.991 56.0008 533.387 60.0222 532.616 63.9018C531.844 67.7814 529.939 71.3451 527.142 74.1421C524.345 76.9392 520.781 78.844 516.902 79.6157C513.022 80.3874 509.001 79.9913 505.346 78.4776C501.692 76.9638 498.568 74.4004 496.371 71.1114C494.173 67.8224 493 63.9556 493 60H503C503 61.9778 503.587 63.9112 504.685 65.5557C505.784 67.2002 507.346 68.4819 509.173 69.2388C511 69.9957 513.011 70.1937 514.951 69.8078C516.891 69.422 518.673 68.4696 520.071 67.0711C521.47 65.6725 522.422 63.8907 522.808 61.9509C523.194 60.0111 522.996 58.0004 522.239 56.1732C521.482 54.3459 520.2 52.7841 518.556 51.6853Z" fill="#080517"/>
<path fill-rule="evenodd" clip-rule="evenodd" d="M503 40C503 41.3132 502.741 42.6136 502.239 43.8268C501.736 45.0401 501 46.1425 500.071 47.0711C499.142 47.9997 498.04 48.7362 496.827 49.2388C495.614 49.7413 494.313 50 493 50L493 60C495.626 60 498.227 59.4827 500.654 58.4776C503.08 57.4725 505.285 55.9993 507.142 54.1421C508.999 52.285 510.472 50.0802 511.478 47.6537C512.483 45.2271 513 42.6264 513 40L503 40Z" fill="#080517"/>
<path d="M618.619 54.4531H613.767V69.8654H618.619V54.4531Z" fill="#080517"/>
<path d="M614.307 51.5666C614.814 52.074 615.448 52.3277 616.209 52.3277C616.97 52.3277 617.594 52.074 618.08 51.5666C618.567 51.0381 618.81 50.4038 618.81 49.6638C618.81 48.9028 618.567 48.2685 618.08 47.7611C617.594 47.2537 616.97 47 616.209 47C615.448 47 614.814 47.2537 614.307 47.7611C613.82 48.2685 613.577 48.9028 613.577 49.6638C613.577 50.4038 613.82 51.0381 614.307 51.5666Z" fill="#080517"/>
<path d="M544.156 69.8657V47.4766H549.135V65.4894H559.061V69.8657H544.156Z" fill="#080517"/>
<path fill-rule="evenodd" clip-rule="evenodd" d="M568.027 70.2135C566.442 70.2135 565.004 69.8647 563.715 69.167C562.446 68.4482 561.442 67.4757 560.702 66.2494C559.962 65.0232 559.592 63.649 559.592 62.1268C559.592 60.6046 559.962 59.241 560.702 58.0359C561.442 56.8308 562.446 55.8794 563.715 55.1818C564.983 54.4629 566.421 54.1035 568.027 54.1035C569.634 54.1035 571.072 54.4524 572.34 55.15C573.609 55.8477 574.613 56.8097 575.353 58.0359C576.093 59.241 576.463 60.6046 576.463 62.1268C576.463 63.649 576.093 65.0232 575.353 66.2494C574.613 67.4757 573.609 68.4482 572.34 69.167C571.072 69.8647 569.634 70.2135 568.027 70.2135ZM568.027 65.8055C568.725 65.8055 569.338 65.6575 569.867 65.3615C570.395 65.0444 570.797 64.611 571.072 64.0613C571.368 63.4905 571.516 62.8456 571.516 62.1268C571.516 61.408 571.368 60.7843 571.072 60.2558C570.776 59.7061 570.364 59.2833 569.835 58.9873C569.328 58.6701 568.725 58.5116 568.027 58.5116C567.351 58.5116 566.748 58.6701 566.22 58.9873C565.691 59.2833 565.279 59.7061 564.983 60.2558C564.687 60.8055 564.539 61.4397 564.539 62.1585C564.539 62.8562 564.687 63.4905 564.983 64.0613C565.279 64.611 565.691 65.0444 566.22 65.3615C566.748 65.6575 567.351 65.8055 568.027 65.8055Z" fill="#080517"/>
<path fill-rule="evenodd" clip-rule="evenodd" d="M580.306 75.8916C581.595 76.4835 583.086 76.7795 584.777 76.7795C586.426 76.7795 587.896 76.4518 589.185 75.7964C590.475 75.141 591.49 74.232 592.23 73.0692C592.97 71.9064 593.34 70.5322 593.34 68.9465V54.4539H588.583V55.4894C588.229 55.1916 587.827 54.9416 587.378 54.7393C586.553 54.3376 585.612 54.1367 584.555 54.1367C583.139 54.1367 581.881 54.475 580.781 55.1515C579.682 55.8069 578.815 56.716 578.181 57.8788C577.547 59.0205 577.23 60.3101 577.23 61.7478C577.23 63.1643 577.547 64.4539 578.181 65.6167C578.815 66.7795 579.682 67.6992 580.781 68.3757C581.881 69.0522 583.139 69.3905 584.555 69.3905C585.591 69.3905 586.532 69.1897 587.378 68.788C587.787 68.5934 588.157 68.3641 588.488 68.1V69.0734C588.488 70.1516 588.139 70.9867 587.441 71.5787C586.765 72.1707 585.824 72.4666 584.619 72.4666C583.646 72.4666 582.811 72.2975 582.113 71.9592C581.437 71.621 580.824 71.1241 580.274 70.4687L577.293 73.4497C578.033 74.5068 579.037 75.3208 580.306 75.8916ZM587.219 64.6336C586.733 64.9296 586.151 65.0776 585.475 65.0776C584.798 65.0776 584.206 64.9296 583.699 64.6336C583.213 64.3376 582.832 63.9359 582.557 63.4285C582.282 62.9 582.145 62.3397 582.145 61.7478C582.145 61.1135 582.282 60.5427 582.557 60.0353C582.832 59.5279 583.223 59.1262 583.731 58.8302C584.238 58.5342 584.819 58.3862 585.475 58.3862C586.151 58.3862 586.733 58.5342 587.219 58.8302C587.726 59.1262 588.107 59.5279 588.361 60.0353C588.636 60.5427 588.773 61.1135 588.773 61.7478C588.773 62.382 588.636 62.9528 588.361 63.4602C588.107 63.9465 587.726 64.3376 587.219 64.6336Z" fill="#080517"/>
<path fill-rule="evenodd" clip-rule="evenodd" d="M603.551 70.2135C601.965 70.2135 600.527 69.8647 599.238 69.167C597.969 68.4482 596.965 67.4757 596.225 66.2494C595.485 65.0232 595.115 63.649 595.115 62.1268C595.115 60.6046 595.485 59.241 596.225 58.0359C596.965 56.8308 597.969 55.8794 599.238 55.1818C600.506 54.4629 601.944 54.1035 603.551 54.1035C605.157 54.1035 606.595 54.4524 607.863 55.15C609.132 55.8477 610.136 56.8097 610.876 58.0359C611.616 59.241 611.986 60.6046 611.986 62.1268C611.986 63.649 611.616 65.0232 610.876 66.2494C610.136 67.4757 609.132 68.4482 607.863 69.167C606.595 69.8647 605.157 70.2135 603.551 70.2135ZM603.551 65.8055C604.248 65.8055 604.861 65.6575 605.39 65.3615C605.918 65.0444 606.32 64.611 606.595 64.0613C606.891 63.4905 607.039 62.8456 607.039 62.1268C607.039 61.408 606.891 60.7843 606.595 60.2558C606.299 59.7061 605.887 59.2833 605.358 58.9873C604.851 58.6701 604.248 58.5116 603.551 58.5116C602.874 58.5116 602.271 58.6701 601.743 58.9873C601.214 59.2833 600.802 59.7061 600.506 60.2558C600.21 60.8055 600.062 61.4397 600.062 62.1585C600.062 62.8562 600.21 63.4905 600.506 64.0613C600.802 64.611 601.214 65.0444 601.743 65.3615C602.271 65.6575 602.874 65.8055 603.551 65.8055Z" fill="#080517"/>
<path fill-rule="evenodd" clip-rule="evenodd" d="M630.281 70.1833C629.246 70.1833 628.294 69.9825 627.427 69.5808C626.971 69.3694 626.559 69.117 626.191 68.8236V76.3673H621.402V54.4539H626.254V55.5176C626.606 55.2297 626.997 54.9808 627.427 54.771C628.294 54.3481 629.246 54.1367 630.281 54.1367C631.74 54.1367 633.03 54.4856 634.15 55.1833C635.292 55.8809 636.18 56.8323 636.814 58.0374C637.47 59.2425 637.797 60.6167 637.797 62.16C637.797 63.7034 637.47 65.0776 636.814 66.2827C636.18 67.4878 635.292 68.4391 634.15 69.1368C633.03 69.8345 631.74 70.1833 630.281 70.1833ZM629.394 65.807C630.091 65.807 630.694 65.6484 631.201 65.3313C631.73 65.0142 632.142 64.5807 632.438 64.0311C632.734 63.4814 632.882 62.8577 632.882 62.16C632.882 61.4412 632.734 60.807 632.438 60.2573C632.142 59.7076 631.73 59.2848 631.201 58.9888C630.694 58.6716 630.102 58.5131 629.425 58.5131C628.749 58.5131 628.146 58.6716 627.618 58.9888C627.11 59.2848 626.709 59.7076 626.413 60.2573C626.117 60.807 625.969 61.4412 625.969 62.16C625.969 62.8577 626.106 63.4814 626.381 64.0311C626.677 64.5807 627.089 65.0142 627.618 65.3313C628.146 65.6484 628.738 65.807 629.394 65.807Z" fill="#080517"/>
<path d="M642.546 69.8958C643.434 70.1284 644.332 70.2446 645.241 70.2446C647.165 70.2446 648.687 69.8007 649.808 68.9127C650.949 68.0248 651.52 66.8303 651.52 65.3292C651.52 64.3567 651.341 63.5744 650.981 62.9825C650.622 62.3694 650.157 61.8831 649.586 61.5237C649.015 61.1643 648.412 60.8788 647.778 60.6674C647.144 60.456 646.541 60.2763 645.971 60.1283C645.4 59.9803 644.935 59.8112 644.575 59.6209C644.216 59.4306 644.036 59.1769 644.036 58.8598C644.036 58.5638 644.174 58.3418 644.448 58.1938C644.723 58.0247 645.135 57.9402 645.685 57.9402C646.256 57.9402 646.837 58.0564 647.429 58.289C648.042 58.5215 648.592 58.9233 649.078 59.4941L651.837 56.7034C651.14 55.8154 650.231 55.1494 649.11 54.7055C648.011 54.2404 646.806 54.0078 645.495 54.0078C644.248 54.0078 643.159 54.2192 642.229 54.642C641.298 55.0649 640.579 55.6463 640.072 56.3862C639.565 57.105 639.311 57.9613 639.311 58.955C639.311 59.8852 639.491 60.6569 639.85 61.27C640.209 61.8619 640.675 62.3271 641.245 62.6653C641.816 63.0036 642.419 63.2679 643.053 63.4581C643.687 63.6484 644.29 63.8281 644.861 63.9973C645.431 64.1453 645.897 64.325 646.256 64.5364C646.637 64.7267 646.827 65.0121 646.827 65.3926C646.827 65.6886 646.668 65.9211 646.351 66.0903C646.055 66.2594 645.622 66.344 645.051 66.344C644.226 66.344 643.465 66.196 642.768 65.9C642.07 65.5829 641.467 65.1495 640.96 64.5998L638.201 67.3905C638.73 67.9613 639.364 68.4688 640.104 68.9127C640.865 69.3355 641.679 69.6632 642.546 69.8958Z" fill="#080517"/>
<path d="M660.368 70.2142C658.952 70.2142 657.694 69.9288 656.595 69.358C655.516 68.766 654.671 67.9626 654.058 66.9478C653.444 65.9119 653.138 64.728 653.138 63.396V54.4531H657.99V63.3326C657.99 63.8611 658.074 64.3157 658.244 64.6962C658.434 65.0768 658.709 65.3728 659.068 65.5842C659.428 65.7956 659.861 65.9013 660.368 65.9013C661.087 65.9013 661.658 65.6793 662.081 65.2353C662.504 64.7702 662.715 64.136 662.715 63.3326V54.4531H667.567V63.3643C667.567 64.7174 667.261 65.9119 666.647 66.9478C666.034 67.9626 665.189 68.766 664.11 69.358C663.032 69.9288 661.785 70.2142 660.368 70.2142Z" fill="#080517"/>
<path d="M674.831 54.4539H669.979V69.8662H674.831V60.8598C674.831 60.3313 674.937 59.8873 675.148 59.5279C675.381 59.1685 675.688 58.8936 676.068 58.7034C676.449 58.4919 676.882 58.3862 677.368 58.3862C678.066 58.3862 678.647 58.6082 679.112 59.0522C679.599 59.475 679.842 60.0776 679.842 60.8598V69.8662H684.694V60.8598C684.694 60.3313 684.8 59.8873 685.011 59.5279C685.244 59.1685 685.55 58.8936 685.931 58.7034C686.311 58.4919 686.745 58.3862 687.231 58.3862C687.929 58.3862 688.51 58.6082 688.975 59.0522C689.461 59.475 689.704 60.0776 689.704 60.8598V69.8662H694.557V60.3207C694.557 59.0311 694.282 57.9317 693.732 57.0226C693.203 56.0923 692.474 55.3841 691.544 54.8979C690.635 54.3904 689.588 54.1367 688.404 54.1367C687.199 54.1367 686.11 54.401 685.138 54.9296C684.506 55.2663 683.954 55.7009 683.481 56.2333C683.04 55.6764 682.504 55.2207 681.871 54.8661C681.026 54.3799 680.064 54.1367 678.986 54.1367C677.844 54.1367 676.819 54.3799 675.91 54.8661C675.514 55.0684 675.155 55.3107 674.831 55.593V54.4539Z" fill="#080517"/>
</g>
</g>
<g clip-path="url(#clip3_2_213)">
<mask id="mask3_2_213" style="mask-type:luminance" maskUnits="userSpaceOnUse" x="277" y="40" width="164" height="40">
<path d="M441 40H277V80H441V40Z" fill="white"/>
</mask>
<g mask="url(#mask3_2_213)">
<path d="M325.104 68.2454H336.772V64.7332H329.251V51.5039H325.104V68.2454Z" fill="#080517"/>
<path d="M343.684 65.9043C342.021 65.9043 341.154 64.4526 341.154 62.2751C341.154 60.0975 342.021 58.6224 343.684 58.6224C345.348 58.6224 346.238 60.0975 346.238 62.2751C346.238 64.4526 345.348 65.9043 343.684 65.9043ZM343.708 68.6204C347.573 68.6204 350.104 65.8809 350.104 62.2751C350.104 58.6692 347.573 55.9297 343.708 55.9297C339.865 55.9297 337.288 58.6692 337.288 62.2751C337.288 65.8809 339.865 68.6204 343.708 68.6204Z" fill="#080517"/>
<path d="M356.795 72.3902C358.576 72.3902 360.145 71.9921 361.2 71.0555C362.16 70.1892 362.793 68.878 362.793 67.075V56.2575H359.138V57.5453H359.091C358.388 56.5384 357.31 55.9062 355.717 55.9062C352.742 55.9062 350.68 58.3882 350.68 61.9004C350.68 65.5765 353.187 67.5902 355.881 67.5902C357.334 67.5902 358.248 67.0048 358.95 66.2087H359.044V67.4028C359.044 68.8545 358.365 69.6975 356.748 69.6975C355.483 69.6975 354.85 69.1589 354.64 68.5267H350.938C351.313 71.0321 353.492 72.3902 356.795 72.3902ZM356.772 64.757C355.342 64.757 354.405 63.5862 354.405 61.7833C354.405 59.957 355.342 58.7862 356.772 58.7862C358.365 58.7862 359.208 60.1443 359.208 61.7599C359.208 63.4458 358.435 64.757 356.772 64.757Z" fill="#080517"/>
<path d="M370.308 65.9043C368.644 65.9043 367.777 64.4526 367.777 62.2751C367.777 60.0975 368.644 58.6224 370.308 58.6224C371.971 58.6224 372.861 60.0975 372.861 62.2751C372.861 64.4526 371.971 65.9043 370.308 65.9043ZM370.331 68.6204C374.197 68.6204 376.727 65.8809 376.727 62.2751C376.727 58.6692 374.197 55.9297 370.331 55.9297C366.489 55.9297 363.912 58.6692 363.912 62.2751C363.912 65.8809 366.489 68.6204 370.331 68.6204Z" fill="#080517"/>
<path d="M377.842 68.2454H381.661V56.2571H377.842V68.2454ZM377.842 54.5946H381.661V51.5039H377.842V54.5946Z" fill="#080517"/>
<path d="M383.318 72.2028H387.137V67.0048H387.184C387.933 68.0116 389.034 68.6204 390.581 68.6204C393.72 68.6204 395.805 66.1384 395.805 62.2516C395.805 58.6458 393.861 55.9062 390.674 55.9062C389.034 55.9062 387.863 56.6321 387.043 57.7092H386.973V56.2575H383.318V72.2028ZM389.597 65.6702C387.957 65.6702 387.02 64.3355 387.02 62.3921C387.02 60.4487 387.863 58.9736 389.526 58.9736C391.166 58.9736 391.94 60.3316 391.94 62.3921C391.94 64.4292 391.049 65.6702 389.597 65.6702Z" fill="#080517"/>
<path d="M402.023 68.6204C405.162 68.6204 407.482 67.2623 407.482 64.6399C407.482 61.5726 404.998 61.0341 402.89 60.6828C401.367 60.4019 400.008 60.2848 400.008 59.4419C400.008 58.6926 400.734 58.3414 401.671 58.3414C402.726 58.3414 403.452 58.6692 403.592 59.7463H407.107C406.919 57.3814 405.092 55.9062 401.695 55.9062C398.86 55.9062 396.517 57.2175 396.517 59.7463C396.517 62.556 398.743 63.118 400.828 63.4692C402.421 63.7502 403.874 63.8672 403.874 64.9443C403.874 65.717 403.147 66.1384 401.999 66.1384C400.734 66.1384 399.938 65.5531 399.797 64.3589H396.189C396.306 67.0048 398.508 68.6204 402.023 68.6204Z" fill="#080517"/>
<path d="M412.669 68.5973C414.332 68.5973 415.387 67.9417 416.254 66.771H416.324V68.2461H419.979V56.2578H416.16V62.9544C416.16 64.3827 415.363 65.3661 414.051 65.3661C412.833 65.3661 412.247 64.6403 412.247 63.329V56.2578H408.452V64.1251C408.452 66.7944 409.904 68.5973 412.669 68.5973Z" fill="#080517"/>
<path d="M421.64 68.2458H425.459V61.5258C425.459 60.0975 426.162 59.0906 427.357 59.0906C428.505 59.0906 429.044 59.8399 429.044 61.1277V68.2458H432.862V61.5258C432.862 60.0975 433.542 59.0906 434.76 59.0906C435.908 59.0906 436.447 59.8399 436.447 61.1277V68.2458H440.266V60.4487C440.266 57.756 438.907 55.9062 436.189 55.9062C434.643 55.9062 433.354 56.5619 432.417 58.0136H432.37C431.761 56.7258 430.566 55.9062 428.997 55.9062C427.263 55.9062 426.115 56.7258 425.365 57.9667H425.295V56.2575H421.64V68.2458Z" fill="#080517"/>
<path d="M301.805 41.9285L297.965 40.9004L294.73 52.9683L291.809 42.0733L287.969 43.1015L291.126 54.8727L283.265 47.0165L280.454 49.8254L289.076 58.4428L278.339 55.5673L277.31 59.4044L289.042 62.5462C288.908 61.9672 288.837 61.3639 288.837 60.744C288.837 56.3561 292.396 52.799 296.787 52.799C301.177 52.799 304.736 56.3561 304.736 60.744C304.736 61.3599 304.666 61.9595 304.533 62.5351L315.196 65.3904L316.225 61.5533L304.446 58.399L315.184 55.5233L314.155 51.6862L302.377 54.8404L310.238 46.9842L307.427 44.1752L298.924 52.673L301.805 41.9285Z" fill="#080517"/>
<path d="M304.523 62.5801C304.194 63.9709 303.499 65.2204 302.545 66.2214L310.27 73.9415L313.08 71.1326L304.523 62.5801Z" fill="#080517"/>
<path d="M302.467 66.3008C301.502 67.2859 300.283 68.021 298.915 68.3998L301.726 78.8837L305.565 77.8555L302.467 66.3008Z" fill="#080517"/>
<path d="M298.771 68.4384C298.137 68.6015 297.472 68.6881 296.786 68.6881C296.052 68.6881 295.341 68.5886 294.666 68.4023L291.853 78.8958L295.692 79.9239L298.771 68.4384Z" fill="#080517"/>
<path d="M294.531 68.3644C293.184 67.9668 291.986 67.2223 291.041 66.2344L283.297 73.9734L286.108 76.7824L294.531 68.3644Z" fill="#080517"/>
<path d="M290.976 66.1666C290.047 65.1725 289.37 63.9397 289.048 62.5703L278.35 65.435L279.379 69.2721L290.976 66.1666Z" fill="#080517"/>
</g>
</g>
<g clip-path="url(#clip4_2_213)">
<mask id="mask4_2_213" style="mask-type:luminance" maskUnits="userSpaceOnUse" x="63" y="40" width="164" height="40">
<path d="M227 40H63V80H227V40Z" fill="white"/>
</mask>
<g mask="url(#mask4_2_213)">
<path d="M110.757 68.0911H122.494V64.5789H114.929V51.3496H110.757V68.0911Z" fill="#080517"/>
<path d="M129.448 65.75C127.775 65.75 126.903 64.2983 126.903 62.1208C126.903 59.9432 127.775 58.4681 129.448 58.4681C131.122 58.4681 132.017 59.9432 132.017 62.1208C132.017 64.2983 131.122 65.75 129.448 65.75ZM129.472 68.4661C133.361 68.4661 135.906 65.7266 135.906 62.1208C135.906 58.5149 133.361 55.7754 129.472 55.7754C125.607 55.7754 123.014 58.5149 123.014 62.1208C123.014 65.7266 125.607 68.4661 129.472 68.4661Z" fill="#080517"/>
<path d="M142.638 72.2359C144.429 72.2359 146.008 71.8378 147.068 70.9012C148.035 70.0349 148.671 68.7237 148.671 66.9207V56.1032H144.994V57.391H144.947C144.24 56.3841 143.156 55.752 141.553 55.752C138.56 55.752 136.486 58.2339 136.486 61.7461C136.486 65.4222 139.008 67.4359 141.718 67.4359C143.18 67.4359 144.099 66.8505 144.806 66.0544H144.9V67.2485C144.9 68.7002 144.217 69.5432 142.59 69.5432C141.318 69.5432 140.681 69.0046 140.469 68.3724H136.745C137.122 70.8778 139.314 72.2359 142.638 72.2359ZM142.614 64.6027C141.176 64.6027 140.233 63.432 140.233 61.629C140.233 59.8027 141.176 58.632 142.614 58.632C144.217 58.632 145.065 59.99 145.065 61.6056C145.065 63.2915 144.287 64.6027 142.614 64.6027Z" fill="#080517"/>
<path d="M156.231 65.75C154.558 65.75 153.686 64.2983 153.686 62.1208C153.686 59.9432 154.558 58.4681 156.231 58.4681C157.905 58.4681 158.8 59.9432 158.8 62.1208C158.8 64.2983 157.905 65.75 156.231 65.75ZM156.255 68.4661C160.144 68.4661 162.689 65.7266 162.689 62.1208C162.689 58.5149 160.144 55.7754 156.255 55.7754C152.39 55.7754 149.797 58.5149 149.797 62.1208C149.797 65.7266 152.39 68.4661 156.255 68.4661Z" fill="#080517"/>
<path d="M163.811 68.0911H167.653V56.1028H163.811V68.0911ZM163.811 54.4403H167.653V51.3496H163.811V54.4403Z" fill="#080517"/>
<path d="M169.319 72.0485H173.161V66.8505H173.208C173.962 67.8573 175.07 68.4661 176.625 68.4661C179.784 68.4661 181.881 65.9841 181.881 62.0973C181.881 58.4915 179.925 55.752 176.72 55.752C175.07 55.752 173.891 56.4778 173.067 57.5549H172.996V56.1032H169.319V72.0485ZM175.636 65.5159C173.986 65.5159 173.043 64.1812 173.043 62.2378C173.043 60.2944 173.891 58.8193 175.565 58.8193C177.215 58.8193 177.992 60.1773 177.992 62.2378C177.992 64.2749 177.097 65.5159 175.636 65.5159Z" fill="#080517"/>
<path d="M188.137 68.4661C191.295 68.4661 193.629 67.1081 193.629 64.4856C193.629 61.4183 191.13 60.8798 189.009 60.5285C187.477 60.2476 186.11 60.1305 186.11 59.2876C186.11 58.5383 186.841 58.1871 187.783 58.1871C188.844 58.1871 189.575 58.5149 189.716 59.592H193.251C193.063 57.2271 191.224 55.752 187.807 55.752C184.955 55.752 182.598 57.0632 182.598 59.592C182.598 62.4017 184.837 62.9637 186.935 63.3149C188.538 63.5959 189.999 63.7129 189.999 64.79C189.999 65.5627 189.268 65.9841 188.113 65.9841C186.841 65.9841 186.039 65.3988 185.898 64.2046H182.268C182.386 66.8505 184.602 68.4661 188.137 68.4661Z" fill="#080517"/>
<path d="M198.846 68.4411C200.519 68.4411 201.58 67.7855 202.452 66.6147H202.523V68.0899H206.2V56.1016H202.358V62.7981C202.358 64.2264 201.556 65.2099 200.237 65.2099C199.011 65.2099 198.422 64.484 198.422 63.1728V56.1016H194.604V63.9689C194.604 66.6381 196.065 68.4411 198.846 68.4411Z" fill="#080517"/>
<path d="M207.871 68.0915H211.713V61.3715C211.713 59.9432 212.42 58.9363 213.622 58.9363C214.777 58.9363 215.319 59.6856 215.319 60.9734V68.0915H219.16V61.3715C219.16 59.9432 219.844 58.9363 221.07 58.9363C222.224 58.9363 222.766 59.6856 222.766 60.9734V68.0915H226.608V60.2944C226.608 57.6017 225.241 55.752 222.507 55.752C220.952 55.752 219.655 56.4076 218.713 57.8593H218.666C218.053 56.5715 216.851 55.752 215.272 55.752C213.528 55.752 212.373 56.5715 211.618 57.8124H211.548V56.1032H207.871V68.0915Z" fill="#080517"/>
<path fill-rule="evenodd" clip-rule="evenodd" d="M71.4987 43.7953C70.0937 44.7712 68.8233 45.9251 67.7204 47.2241C72.2273 46.8084 77.9531 47.4871 84.6007 50.7892C91.6994 54.3153 97.4156 54.4345 101.394 53.6722C101.033 52.5864 100.578 51.5429 100.04 50.5509C95.4861 51.0281 89.6479 50.3964 82.844 47.0168C78.5234 44.8707 74.7149 43.9866 71.4987 43.7953ZM97.3799 46.7892C93.7836 42.7973 88.5573 40.2852 82.7403 40.2852C81.032 40.2852 79.3746 40.5018 77.7945 40.909C79.9345 41.4891 82.2079 42.3378 84.6007 43.5264C89.5821 46.0008 93.8829 46.7975 97.3799 46.7892ZM102.244 57.4833C97.4383 58.4261 90.8016 58.2324 82.844 54.2797C75.4045 50.5843 69.4833 50.6308 65.4898 51.5125C65.2837 51.5579 65.0824 51.6057 64.886 51.6555C64.3631 52.7851 63.9458 53.973 63.6463 55.2066C63.9661 55.1217 64.2966 55.041 64.6376 54.9657C69.4824 53.8962 76.3277 53.9426 84.6007 58.0521C92.0403 61.7475 97.9614 61.7009 101.955 60.8193C102.092 60.7891 102.227 60.7579 102.359 60.7257C102.374 60.4181 102.381 60.1085 102.381 59.7973C102.381 59.0144 102.335 58.2422 102.244 57.4833ZM101.718 64.8435C96.9585 65.6701 90.5151 65.3528 82.844 61.5425C75.4045 57.8471 69.4833 57.8936 65.4898 58.7753C64.6033 58.9709 63.8059 59.2092 63.1025 59.4608C63.1006 59.5727 63.0996 59.6849 63.0996 59.7973C63.0996 70.5736 71.893 79.3095 82.7403 79.3095C91.8311 79.3095 99.4794 73.1738 101.718 64.8435Z" fill="#080517"/>
</g>
</g>
<defs>
<clipPath id="clip0_2_213">
<rect width="172" height="40" fill="white" transform="translate(961 40)"/>
</clipPath>
<clipPath id="clip1_2_213">
<rect width="166" height="40" fill="white" transform="translate(745 40)"/>
</clipPath>
<clipPath id="clip2_2_213">
<rect width="202" height="40" fill="white" transform="translate(493 40)"/>
</clipPath>
<clipPath id="clip3_2_213">
<rect width="164" height="40" fill="white" transform="translate(277 40)"/>
</clipPath>
<clipPath id="clip4_2_213">
<rect width="164" height="40" fill="white" transform="translate(63 40)"/>
</clipPath>
</defs>
</svg>
